<svg width="250" height="250" viewBox="0 0 25 25" fill="none" xmlns="http://www.w3.org/2000/svg">
<path d="M1 3.25C1 3.54547 1.0582 3.83806 1.17127 4.11104C1.28434 4.38402 1.45008 4.63206 1.65901 4.84099C1.86794 5.04992 2.11598 5.21566 2.38896 5.32873C2.66194 5.4418 2.95453 5.5 3.25 5.5C3.54547 5.5 3.83806 5.4418 4.11104 5.32873C4.38402 5.21566 4.63206 5.04992 4.84099 4.84099C5.04992 4.63206 5.21566 4.38402 5.32873 4.11104C5.4418 3.83806 5.5 3.54547 5.5 3.25C5.5 2.95453 5.4418 2.66194 5.32873 2.38896C5.21566 2.11598 5.04992 1.86794 4.84099 1.65901C4.63206 1.45008 4.38402 1.28434 4.11104 1.17127C3.83806 1.0582 3.54547 1 3.25 1C2.95453 1 2.66194 1.0582 2.38896 1.17127C2.11598 1.28434 1.86794 1.45008 1.65901 1.65901C1.45008 1.86794 1.28434 2.11598 1.17127 2.38896C1.0582 2.66194 1 2.95453 1 3.25V3.25Z" stroke="#052B67" stroke-width="1.5" stroke-linecap="round" stroke-linejoin="round"/>
<path d="M5.07202 4.57104L7.00002 5.96904" stroke="#052B67" stroke-width="1.5" stroke-linecap="round" stroke-linejoin="round"/>
<path d="M1 21.25C1 21.5455 1.0582 21.8381 1.17127 22.111C1.28434 22.384 1.45008 22.6321 1.65901 22.841C1.86794 23.0499 2.11598 23.2157 2.38896 23.3287C2.66194 23.4418 2.95453 23.5 3.25 23.5C3.54547 23.5 3.83806 23.4418 4.11104 23.3287C4.38402 23.2157 4.63206 23.0499 4.84099 22.841C5.04992 22.6321 5.21566 22.384 5.32873 22.111C5.4418 21.8381 5.5 21.5455 5.5 21.25C5.5 20.9545 5.4418 20.6619 5.32873 20.389C5.21566 20.116 5.04992 19.8679 4.84099 19.659C4.63206 19.4501 4.38402 19.2843 4.11104 19.1713C3.83806 19.0582 3.54547 19 3.25 19C2.95453 19 2.66194 19.0582 2.38896 19.1713C2.11598 19.2843 1.86794 19.4501 1.65901 19.659C1.45008 19.8679 1.28434 20.116 1.17127 20.389C1.0582 20.6619 1 20.9545 1 21.25V21.25Z" stroke="#052B67" stroke-width="1.5" stroke-linecap="round" stroke-linejoin="round"/>
<path d="M5.07202 19.929L7.00002 18.53" stroke="#052B67" stroke-width="1.5" stroke-linecap="round" stroke-linejoin="round"/>
<path d="M19 3.25C19 3.84674 19.2371 4.41903 19.659 4.84099C20.081 5.26295 20.6533 5.5 21.25 5.5C21.8467 5.5 22.419 5.26295 22.841 4.84099C23.2629 4.41903 23.5 3.84674 23.5 3.25C23.5 2.65326 23.2629 2.08097 22.841 1.65901C22.419 1.23705 21.8467 1 21.25 1C20.6533 1 20.081 1.23705 19.659 1.65901C19.2371 2.08097 19 2.65326 19 3.25V3.25Z" stroke="#052B67" stroke-width="1.5" stroke-linecap="round" stroke-linejoin="round"/>
<path d="M19.428 4.57104L17.5 5.96904" stroke="#052B67" stroke-width="1.5" stroke-linecap="round" stroke-linejoin="round"/>
<path d="M19 21.25C19 21.8467 19.2371 22.419 19.659 22.841C20.081 23.2629 20.6533 23.5 21.25 23.5C21.8467 23.5 22.419 23.2629 22.841 22.841C23.2629 22.419 23.5 21.8467 23.5 21.25C23.5 20.6533 23.2629 20.081 22.841 19.659C22.419 19.2371 21.8467 19 21.25 19C20.6533 19 20.081 19.2371 19.659 19.659C19.2371 20.081 19 20.6533 19 21.25V21.25Z" stroke="#052B67" stroke-width="1.5" stroke-linecap="round" stroke-linejoin="round"/>
<path d="M19.428 19.929L17.5 18.53" stroke="#052B67" stroke-width="1.5" stroke-linecap="round" stroke-linejoin="round"/>
<path d="M9.625 8.125C9.625 8.82119 9.90156 9.48887 10.3938 9.98116C10.8861 10.4734 11.5538 10.75 12.25 10.75C12.9462 10.75 13.6139 10.4734 14.1062 9.98116C14.5984 9.48887 14.875 8.82119 14.875 8.125C14.875 7.42881 14.5984 6.76113 14.1062 6.26884C13.6139 5.77656 12.9462 5.5 12.25 5.5C11.5538 5.5 10.8861 5.77656 10.3938 6.26884C9.90156 6.76113 9.625 7.42881 9.625 8.125V8.125Z" stroke="#0149A1" stroke-width="1.5" stroke-linecap="round" stroke-linejoin="round"/>
<path d="M7.75 16C7.75 14.8065 8.22411 13.6619 9.06802 12.818C9.91193 11.9741 11.0565 11.5 12.25 11.5C13.4435 11.5 14.5881 11.9741 15.432 12.818C16.2759 13.6619 16.75 14.8065 16.75 16H7.75Z" stroke="#0149A1" stroke-width="1.5" stroke-linecap="round" stroke-linejoin="round"/>
</svg>
