<svg width="300" height="300" viewBox="0 0 25 25" fill="none" xmlns="http://www.w3.org/2000/svg">
<path d="M17.4985 5.5H18.9985C19.3964 5.5 19.7779 5.65804 20.0592 5.93934C20.3405 6.22064 20.4985 6.60218 20.4985 7V14.5C20.4985 14.8978 20.3405 15.2794 20.0592 15.5607C19.7779 15.842 19.3964 16 18.9985 16H16.7485" stroke="#0149A1" stroke-width="1.5" stroke-linecap="round" stroke-linejoin="round"/>
<path d="M7.74854 16H5.49854C5.10071 16 4.71918 15.842 4.43787 15.5607C4.15657 15.2794 3.99854 14.8978 3.99854 14.5V7C3.99854 6.60218 4.15657 6.22064 4.43787 5.93934C4.71918 5.65804 5.10071 5.5 5.49854 5.5H6.99854" stroke="#0149A1" stroke-width="1.5" stroke-linecap="round" stroke-linejoin="round"/>
<path d="M18.8194 16C19.3765 16 19.9225 16.1551 20.3964 16.448C20.8703 16.7408 21.2533 17.1598 21.5024 17.658L23.3384 21.329C23.4529 21.5577 23.5069 21.8119 23.4954 22.0674C23.4839 22.3229 23.4073 22.5712 23.2728 22.7887C23.1383 23.0062 22.9505 23.1858 22.7271 23.3103C22.5037 23.4348 22.2522 23.5001 21.9964 23.5H2.50045C2.24471 23.5001 1.9932 23.4348 1.7698 23.3103C1.54641 23.1858 1.35856 23.0062 1.22409 22.7887C1.08962 22.5712 1.013 22.3229 1.00151 22.0674C0.990026 21.8119 1.04405 21.5577 1.15845 21.329L2.99445 17.658C3.24364 17.1598 3.62662 16.7408 4.10049 16.448C4.57436 16.1551 5.1204 16 5.67745 16" stroke="#0149A1" stroke-width="1.5" stroke-linecap="round" stroke-linejoin="round"/>
<path d="M14.4985 4.206C14.4985 2.435 12.2485 1 12.2485 1C12.2485 1 9.99854 2.435 9.99854 4.206V11.687H14.4985V4.206Z" stroke="#0149A1" stroke-width="1.5" stroke-linecap="round" stroke-linejoin="round"/>
<path d="M9.99857 11.687H7.26057C7.17756 11.6885 7.09515 11.6727 7.01856 11.6407C6.94196 11.6087 6.87284 11.5611 6.81557 11.501C6.76421 11.4463 6.72799 11.3792 6.71045 11.3063C6.69292 11.2333 6.69468 11.1571 6.71557 11.085C6.98311 10.3427 7.41864 9.67236 7.98815 9.12627C8.55766 8.58018 9.24572 8.17316 9.99857 7.93701" stroke="#0149A1" stroke-width="1.5" stroke-linecap="round" stroke-linejoin="round"/>
<path d="M14.4985 11.687H17.2365C17.3194 11.6883 17.4016 11.6725 17.478 11.6405C17.5544 11.6085 17.6234 11.561 17.6805 11.501C17.7321 11.4464 17.7684 11.3793 17.7859 11.3063C17.8035 11.2334 17.8016 11.157 17.7805 11.085C17.5124 10.3433 17.0767 9.67336 16.5075 9.12738C15.9383 8.5814 15.2508 8.17405 14.4985 7.93701" stroke="#0149A1" stroke-width="1.5" stroke-linecap="round" stroke-linejoin="round"/>
<path d="M10.7485 14.5V16.75" stroke="#052B67" stroke-width="1.5" stroke-linecap="round" stroke-linejoin="round"/>
<path d="M13.7485 14.5V19" stroke="#052B67" stroke-width="1.5" stroke-linecap="round" stroke-linejoin="round"/>
</svg>

