<svg width="120" height="120" viewBox="0 0 120 120" fill="none" xmlns="http://www.w3.org/2000/svg">
<path d="M13.7083 40.5437L16.0943 36.1833L13.1533 34.0383L13.2995 33.7933L16.6786 35.1055L19.0646 30.7451L11.5638 24.747L9.76209 28.0295L14.2226 31.2958L14.0764 31.5408L8.78818 29.7932L7.37586 32.292L11.6414 35.8524L11.4953 36.0974L6.451 34.1045L4.64931 37.3871L13.7083 40.5437Z" fill="#FFD9D9"/>
<path d="M22.2344 26.872L28.5785 20.6912L26.5672 18.5927L22.8584 22.2226L22.4169 21.7835L25.9794 18.3007L24.3605 16.5926L20.7981 20.0753L20.3566 19.6362L24.0654 16.0063L22.0541 13.9077L15.7101 20.0885L22.2344 26.872Z" fill="#FFD9D9"/>
<path d="M36.6231 10.0538L36.5248 9.85835C36.8168 9.27052 37.1576 8.63364 36.6171 7.70549C36.0272 6.6307 34.7532 5.85122 32.1639 7.27668L26.5948 10.4222L31.2148 18.6294L36.5397 15.6313C39.2266 14.1077 39.5651 12.5902 38.8278 11.2712C38.3851 10.3428 37.6506 10.1001 36.6231 10.0538ZM33.198 9.86695C33.6377 9.62119 33.8341 9.91423 33.9322 10.0118C33.9813 10.0606 34.1289 10.4027 33.6405 10.6975L31.6863 11.7789L31.2439 10.9483L33.198 9.86695ZM35.1147 13.2377L33.1118 14.3681L32.6203 13.4888L34.6232 12.3584C35.0629 12.1126 35.3084 12.4544 35.3575 12.5032C35.3577 12.6011 35.5544 12.992 35.1147 13.2377Z" fill="#FFD9D9"/>
<path d="M52.5485 0.81527L47.5598 1.41525L48.7582 10.8054L53.7469 10.2055C57.6595 9.70612 58.7302 7.55073 58.3808 4.86085C58.0311 2.07312 56.5098 0.266877 52.5485 0.81527ZM53.3474 7.0754L52.0269 7.22559L51.6271 3.99768L52.9477 3.8475C53.7302 3.74763 54.5625 3.99008 54.7127 5.31063C54.8626 6.53332 54.1299 6.97553 53.3474 7.0754Z" fill="#FFD9D9"/>
<path d="M62.2579 9.59622L71.0671 10.7476L71.4509 7.81122L66.3121 7.09065L66.4084 6.50333L71.3513 7.12656L71.6878 4.82628L66.7449 4.20305L66.7922 3.56693L71.931 4.2875L72.3148 1.3511L63.5057 0.199707L62.2579 9.59622Z" fill="#FFD9D9"/>
<path d="M78.7068 13.6634C81.8902 14.9761 83.7485 14.6778 84.575 12.6698C85.5957 10.0742 82.9513 9.10258 81.2854 8.12842L80.4524 7.59241C79.9624 7.30013 80.1085 7.05514 80.1573 7.00609C80.2546 6.81015 80.5967 6.66248 81.4293 7.0028C82.4088 7.39165 82.7033 7.78228 82.6067 8.27177L85.6432 9.53594C86.8594 6.84201 85.1924 5.47645 82.5478 4.40697C79.5604 3.19161 77.6538 3.73469 76.9734 5.49769C76.0012 7.94637 78.1564 8.91927 79.7242 9.79584L80.8023 10.478C81.4882 10.8676 81.3421 11.1126 81.2933 11.1617C81.1959 11.3576 80.8048 11.4564 79.8253 11.0676C78.6989 10.6302 78.4532 10.1905 78.5988 9.74983L75.5135 8.53471C74.3452 10.7882 75.4743 12.3019 78.7068 13.6634Z" fill="#FFD9D9"/>
<path d="M86.2009 17.0198L89.2394 19.0668L94.4539 11.1766L91.4153 9.12968L86.2009 17.0198Z" fill="#FFD9D9"/>
<path d="M95.3205 24.7262C96.7919 26.1901 98.2108 26.2354 99.2376 25.9881L98.1153 27.1162L99.4396 28.4337L103.295 24.6567L99.6649 20.9479L98.4938 22.1251L99.6219 23.2474C98.8892 23.6896 98.3006 23.104 98.0063 22.8112C97.2215 22.0305 97.2187 20.9542 98.0973 20.1691C98.9269 19.3353 99.9544 19.3816 100.739 20.2602C101.23 20.7481 101.28 21.384 101.232 21.6287L103.783 24.264C105.49 22.2538 104.652 19.663 102.984 18.0039C100.629 15.5638 97.7426 15.4245 95.5465 17.5339C93.2037 19.6926 93.3582 22.6765 95.3205 24.7262Z" fill="#FFD9D9"/>
<path d="M101.452 31.2169L103.173 34.3925L106.935 32.3769L107.131 32.6699L104.549 36.8351L106.515 40.4503L114.821 35.9279L113.1 32.7523L109.338 34.7679L109.142 34.4749L111.822 30.4073L109.758 26.6945L101.452 31.2169Z" fill="#FFD9D9"/>
<path d="M113.031 43.9071C113.278 44.836 114.307 45.3715 115.236 45.1245C116.165 44.8775 116.7 43.8487 116.404 42.871C116.157 41.9421 115.128 41.4066 114.2 41.6536C113.271 41.9985 112.686 42.9785 113.031 43.9071ZM108.485 45.2398C108.732 46.1687 109.761 46.7042 110.69 46.4572C111.618 46.2102 112.154 45.1814 111.858 44.2037C111.611 43.2748 110.582 42.7393 109.653 42.9863C108.773 43.2821 108.238 44.3109 108.485 45.2398Z" fill="#FFD9D9"/>
<path d="M114.7 65.0868L114.896 65.0863C115.24 65.6236 115.584 66.2587 116.709 66.3047C117.933 66.3505 119.301 65.662 119.391 62.7264L119.57 56.3659L110.127 56.0478L109.947 62.1148C109.857 65.1483 110.985 66.2706 112.502 66.3156C113.579 66.4107 114.213 65.8709 114.7 65.0868ZM116.601 62.1954C116.553 62.7337 116.26 62.7345 116.064 62.735C115.966 62.7352 115.624 62.6872 115.573 62.1492L115.666 59.8985L116.644 59.8959L116.601 62.1954ZM112.785 62.1074L112.877 59.8567L113.855 59.8542L113.763 62.1049C113.764 62.5941 113.324 62.6442 113.275 62.5954C113.226 62.6445 112.786 62.5967 112.785 62.1074Z" fill="#FFD9D9"/>
<path d="M109.282 69.5528L106.76 78.072L109.55 78.8965L111.005 73.9026L111.593 74.0967L110.186 78.8459L112.438 79.525L113.845 74.7758L114.433 74.97L112.978 79.964L115.769 80.7884L118.291 72.2693L109.282 69.5528Z" fill="#FFD9D9"/>
<path d="M102.473 85.4215C101.158 87.5286 100.822 90.2202 103.714 92.2186L105.516 89.2296C104.781 88.5955 104.73 87.8618 105.217 87.0778C105.704 86.2937 106.682 85.9977 107.662 86.5822C108.642 87.1668 108.841 88.2426 108.353 89.0266C107.866 89.8106 107.182 90.1059 106.349 89.7656L104.547 92.7546C107.633 94.3611 109.88 92.7898 111.097 90.6829C112.802 87.8899 112.208 85.0538 109.611 83.4461C107.014 81.8383 104.178 82.6284 102.473 85.4215Z" fill="#FFD9D9"/>
<path d="M93.7926 96.0116C91.3522 98.2684 91.1151 101.155 93.2247 103.449C95.2853 105.695 98.1719 105.736 100.661 103.43C103.15 101.124 103.339 98.2863 101.229 95.9924C99.1195 93.7963 96.2329 93.7548 93.7926 96.0116ZM95.9513 98.3544C96.6835 97.7165 97.6617 97.6161 98.5446 98.4944C99.3787 99.4218 99.1855 100.401 98.5023 101.087C97.8189 101.676 96.7919 101.826 95.909 100.947C95.0749 100.02 95.2681 99.041 95.9513 98.3544Z" fill="#FFD9D9"/>
<path d="M87.3496 101.899L84.1736 103.424L85.5507 106.258L85.3065 106.405L83.343 103.866L80.8999 105.047L81.7886 108.176L81.5444 108.323L80.1672 105.489L76.9911 107.014L81.1714 115.467L85.3247 113.45L84.1877 108.903L84.432 108.756L87.3279 112.418L91.4812 110.401L87.3496 101.899Z" fill="#FFD9D9"/>
<path d="M73.6661 107.707L70.048 108.597L72.2244 117.789L75.8425 116.899L73.6661 107.707Z" fill="#FFD9D9"/>
<path d="M66.7232 109.389L63.1031 109.496L63.2121 113.801L62.8697 113.85L60.3149 109.65L56.2056 109.758L56.5722 119.102L60.1922 118.994L60.0833 114.689L60.3768 114.689L62.8338 118.89L67.041 118.781L66.7232 109.389Z" fill="#FFD9D9"/>
<path d="M48.2262 107.773C46.2189 107.24 44.949 108.026 44.2658 108.713L44.6041 107.098L42.7928 106.662L41.4854 111.9L46.4788 113.159L46.915 111.544L45.3484 111.156C45.7868 110.421 46.5701 110.615 46.9618 110.712C47.9898 110.954 48.5791 111.833 48.2886 113.008C47.9981 114.183 47.0697 114.625 45.9926 114.335C45.3072 114.141 44.9146 113.653 44.865 113.408L41.2912 112.488C40.9067 115.131 43.0148 116.837 45.2668 117.419C48.5467 118.242 51.0872 116.866 51.8624 113.928C52.5885 110.942 50.9676 108.451 48.2262 107.773Z" fill="#FFD9D9"/>
<path d="M28.3383 98.1375L25.299 95.7971L22.2415 105.345L26.3592 108.465L34.7598 102.964L31.7205 100.624L30.8414 101.213L27.9492 99.0192L28.3383 98.1375ZM28.5467 103.029L26.6423 104.453L26.1521 104.063L26.9781 101.859L28.5467 103.029Z" fill="#FFD9D9"/>
<path d="M19.6067 89.1581L17.7393 85.934L16.2251 86.8675L15.1933 85.1578C13.8667 82.9597 12.1032 82.0836 9.7584 83.4595C7.41363 84.8354 7.27204 86.8417 8.59865 89.0398L11.4488 93.9248L19.6067 89.1581ZM13.5382 88.391L12.1704 89.1773L11.3351 87.7607C11.0893 87.321 11.1371 86.8806 11.5768 86.6348C12.0164 86.3891 12.4571 86.5347 12.7029 86.9744L13.5382 88.391Z" fill="#FFD9D9"/>
<path d="M10.5978 67.6061L8.10862 69.9119C7.37338 69.3757 6.39416 69.0847 5.22077 69.3812C2.67854 70.0727 1.99817 71.8357 2.68992 74.4758L4.17176 79.9514L13.2651 77.4817L12.3264 73.9128L10.2241 74.4563L9.73003 72.5985L11.536 70.9794L10.5978 67.6061ZM6.16662 75.6899L5.72187 73.9787C5.57371 73.441 5.81745 73.0979 6.20858 72.999C6.59971 72.9002 6.94255 73.046 7.09071 73.5838L7.53545 75.295L6.16662 75.6899Z" fill="#FFD9D9"/>
<path d="M10.5276 59.3383C10.5678 55.9625 8.55652 53.864 5.52329 53.8718C2.44101 53.8309 0.440604 55.9397 0.4492 59.2665C0.409 62.6423 2.42028 64.7408 5.45351 64.733C8.53579 64.774 10.5362 62.6651 10.5276 59.3383ZM7.34748 59.2976C7.35001 60.2761 6.71615 61.1094 5.49295 61.0637C4.22095 61.0669 3.6316 60.1878 3.67812 59.2582C3.72464 58.3285 4.26065 57.4954 5.53265 57.4921C6.75585 57.5379 7.394 58.368 7.34748 59.2976Z" fill="#FFD9D9"/>
<path fill-rule="evenodd" clip-rule="evenodd" d="M58.7278 27.3459C58.5077 27.5379 58.1312 28.3676 57.8909 29.19C56.7296 33.1654 52.6076 39.2661 46.862 45.5129C45.9019 46.557 45.1161 47.5671 45.1161 47.7575C45.1161 47.9481 46.1571 50.8683 47.4293 54.2468C50.1839 61.5614 50.2517 61.7278 50.5612 61.9244C50.8739 62.123 67.8872 62.1258 68.1997 61.9274C68.5258 61.7201 68.9326 60.7309 71.4559 54.0069C72.6623 50.7919 73.6496 47.9658 73.6496 47.727C73.6496 47.4662 73.1448 46.7625 72.3866 45.9665C66.4791 39.7631 61.9838 33.1534 60.7734 28.891C60.3999 27.5758 60.0028 26.9971 59.4738 26.9971C59.2835 26.9971 58.9477 27.154 58.7278 27.3459ZM28.6451 43.0106C26.7956 43.7225 25.5501 45.1677 25.1576 47.0568C24.9152 48.2236 25.1067 49.6488 25.6461 50.691C25.9849 51.3453 27.4321 52.6784 28.3192 53.1533L28.9538 53.493V61.3871V69.2811L28.2055 69.5877C27.2717 69.9702 26.0463 71.1227 25.5483 72.0868C24.2176 74.6617 25.408 78.1267 28.0447 79.3534C30.723 80.5996 34.2293 79.3133 35.3187 76.6854L35.5869 76.0389H40.8465H46.1062L46.2125 75.5903C46.4803 74.462 46.6697 73.1408 46.5839 73.0019C46.5318 72.9179 44.0362 72.8492 41.038 72.8492H35.5869L35.3227 72.212C34.9219 71.2451 33.986 70.2864 32.9125 69.743L31.9468 69.254V61.3736V53.493L32.5813 53.1533C33.5726 52.6228 34.9352 51.3118 35.3598 50.4803L35.7461 49.7238H39.3336C41.7815 49.7238 42.9212 49.655 42.9212 49.5073C42.9212 49.3882 42.7678 48.7154 42.5802 48.0121L42.2392 46.7334H38.992H35.7447L35.2603 45.7865C34.268 43.8465 32.5175 42.7473 30.4503 42.7658C29.7918 42.7718 28.9795 42.8818 28.6451 43.0106ZM87.5173 43.1185C86.3371 43.6561 85.4649 44.4711 84.7887 45.668L84.1869 46.7334H80.5563H76.9256L76.5846 48.0121C76.397 48.7154 76.2436 49.3882 76.2436 49.5073C76.2436 49.656 77.5206 49.7238 80.3207 49.7238C84.1498 49.7238 84.405 49.7467 84.5179 50.1023C84.7857 50.9454 85.8839 52.1479 86.9187 52.7315L88.0161 53.3503V61.191V69.0315L86.8688 69.794C86.1337 70.2826 85.4473 70.9684 84.9583 71.7029L84.1951 72.8492H78.3016H72.4079L72.5246 73.4971C72.5887 73.8533 72.6998 74.525 72.7715 74.9893L72.9016 75.8335L78.6035 75.8864L84.3054 75.9392L84.7142 76.73C85.9911 79.2009 88.6112 80.3197 91.2947 79.5402C93.4401 78.917 94.9999 76.7661 94.9999 74.4307C94.9999 72.4211 93.6893 70.3981 91.8572 69.5791L91.0092 69.2001V61.3467V53.493L91.6437 53.1533C92.6456 52.617 93.9992 51.3084 94.4352 50.4548C95.3535 48.6564 95.0176 46.0207 93.6819 44.5437C92.1631 42.8639 89.4524 42.2373 87.5173 43.1185ZM31.9031 46.2534C32.5474 46.6752 33.0073 47.8311 32.8547 48.6442C32.6831 49.5587 31.5435 50.5212 30.633 50.5212C28.6555 50.5212 27.549 48.6271 28.5593 46.9712C29.2742 45.7998 30.732 45.4868 31.9031 46.2534ZM91.0046 46.2974C91.2813 46.502 91.6255 47.0324 91.7694 47.4766C92.1074 48.5202 91.7227 49.538 90.7717 50.1173C88.6648 51.4007 86.299 49.0471 87.557 46.9194C88.2482 45.7502 89.8678 45.4579 91.0046 46.2974ZM61.6378 46.8129C64.6612 48.3436 65.1456 52.4262 62.5716 54.6842C61.5444 55.5853 60.7118 55.9038 59.3829 55.9038C58.0607 55.9038 57.2213 55.5855 56.2138 54.7017C53.5235 52.3415 54.1008 48.2754 57.3488 46.7073C58.8441 45.9854 60.0627 46.0155 61.6378 46.8129ZM52.0001 65.8625C51.7806 65.9532 51.3945 66.2496 51.1421 66.5212C50.7402 66.9536 50.4724 68.202 48.9883 76.5606C47.8785 82.8096 47.324 86.414 47.3822 86.9971C47.4503 87.6779 47.6177 88.0182 48.0926 88.4425L48.7141 88.9971H59.4705H70.2268L70.8332 88.3912C71.1666 88.0581 71.4928 87.4973 71.5579 87.1452C71.6896 86.4333 68.4364 67.566 68.061 66.8655C67.9381 66.636 67.5516 66.2742 67.2018 66.0611C66.6028 65.6962 66.1571 65.6745 59.4826 65.6857C55.5867 65.6922 52.2196 65.7718 52.0001 65.8625ZM31.7676 72.5069C32.7328 73.1546 33.1041 74.2831 32.6823 75.2869C32.0156 76.8732 30.1017 77.2779 28.9077 76.0849C28.2298 75.4075 27.9992 74.2122 28.4001 73.4532C28.7496 72.7917 29.8848 72.0517 30.55 72.0517C30.8468 72.0517 31.3947 72.2565 31.7676 72.5069ZM90.83 72.5077C92.0823 73.3495 92.2415 74.9763 91.1758 76.0411C89.2395 77.9756 86.2533 75.6902 87.5199 73.2431C88.1321 72.0599 89.6595 71.7206 90.83 72.5077Z" fill="#5928E5"/>
</svg>
